<svg width="27" height="18" viewBox="0 0 27 18" fill="none" xmlns="http://www.w3.org/2000/svg">
<path d="M12.2039 16.315L1.41286 3.9805C0.13936 2.527 1.17436 0.250001 3.10711 0.250001H24.6891C25.1217 0.24963 25.5451 0.373948 25.9089 0.608067C26.2726 0.842187 26.5611 1.17618 26.7399 1.57006C26.9186 1.96394 26.9801 2.401 26.9169 2.8289C26.8536 3.2568 26.6684 3.65741 26.3834 3.98275L15.5924 16.3128C15.3812 16.5544 15.1207 16.7481 14.8285 16.8808C14.5363 17.0135 14.2191 17.0822 13.8981 17.0822C13.5772 17.0822 13.2599 17.0135 12.9677 16.8808C12.6755 16.7481 12.415 16.5544 12.2039 16.3128V16.315Z" fill="#3A3838"/>
</svg>
