<svg width="56" height="56" viewBox="0 0 50 50" fill="none" xmlns="http://www.w3.org/2000/svg">
<rect x="1" y="1" width="48" height="48" rx="14" stroke="#259073" stroke-width="2"/>
<path fill-rule="evenodd" clip-rule="evenodd" d="M26.1064 5.14386C26.2519 5.289 26.3673 5.46142 26.4461 5.65125C26.5249 5.84108 26.5654 6.04458 26.5654 6.25011C26.5654 6.45563 26.5249 6.65913 26.4461 6.84896C26.3673 7.03879 26.2519 7.21122 26.1064 7.35636L8.45948 25.0001L26.1064 42.6439C26.3998 42.9373 26.5646 43.3352 26.5646 43.7501C26.5646 44.165 26.3998 44.563 26.1064 44.8564C25.813 45.1498 25.415 45.3146 25.0001 45.3146C24.5852 45.3146 24.1873 45.1498 23.8939 44.8564L5.14386 26.1064C4.99835 25.9612 4.8829 25.7888 4.80413 25.599C4.72536 25.4091 4.68481 25.2056 4.68481 25.0001C4.68481 24.7946 4.72536 24.5911 4.80413 24.4013C4.8829 24.2114 4.99835 24.039 5.14386 23.8939L23.8939 5.14386C24.039 4.99835 24.2114 4.8829 24.4013 4.80413C24.5911 4.72536 24.7946 4.68481 25.0001 4.68481C25.2056 4.68481 25.4091 4.72536 25.599 4.80413C25.7888 4.8829 25.9612 4.99835 26.1064 5.14386Z" fill="#259073"/>
<path fill-rule="evenodd" clip-rule="evenodd" d="M38.6064 5.14386C38.7519 5.289 38.8673 5.46142 38.9461 5.65125C39.0249 5.84108 39.0654 6.04458 39.0654 6.25011C39.0654 6.45563 39.0249 6.65913 38.9461 6.84896C38.8673 7.03879 38.7519 7.21122 38.6064 7.35636L20.9595 25.0001L38.6064 42.6439C38.7516 42.7891 38.8669 42.9616 38.9455 43.1514C39.0241 43.3412 39.0646 43.5447 39.0646 43.7501C39.0646 43.9556 39.0241 44.159 38.9455 44.3488C38.8669 44.5386 38.7516 44.7111 38.6064 44.8564C38.4611 45.0016 38.2886 45.1169 38.0988 45.1955C37.909 45.2741 37.7056 45.3146 37.5001 45.3146C37.2947 45.3146 37.0912 45.2741 36.9014 45.1955C36.7116 45.1169 36.5391 45.0016 36.3939 44.8564L17.6439 26.1064C17.4983 25.9612 17.3829 25.7888 17.3041 25.599C17.2254 25.4091 17.1848 25.2056 17.1848 25.0001C17.1848 24.7946 17.2254 24.5911 17.3041 24.4013C17.3829 24.2114 17.4983 24.039 17.6439 23.8939L36.3939 5.14386C36.539 4.99835 36.7114 4.8829 36.9013 4.80413C37.0911 4.72536 37.2946 4.68481 37.5001 4.68481C37.7056 4.68481 37.9091 4.72536 38.099 4.80413C38.2888 4.8829 38.4612 4.99835 38.6064 5.14386Z" fill="#259073"/>
</svg>
