<svg width="24" height="27" viewBox="0 0 21 24" fill="none" xmlns="http://www.w3.org/2000/svg">
<g clip-path="url(#clip0_76_73)">
<path d="M8.36462 2.35066H12.2252C12.3959 2.35066 12.5595 2.42569 12.6802 2.55924C12.8008 2.69279 12.8686 2.87393 12.8686 3.0628V4.48707H7.72118V3.0628C7.72118 2.87393 7.78897 2.69279 7.90964 2.55924C8.03031 2.42569 8.19397 2.35066 8.36462 2.35066ZM14.1555 4.48707V3.0628C14.1555 2.49619 13.9521 1.95278 13.5901 1.55213C13.2281 1.15148 12.7372 0.926392 12.2252 0.926392L8.36462 0.926392C7.85267 0.926392 7.36169 1.15148 6.99969 1.55213C6.63769 1.95278 6.43432 2.49619 6.43432 3.0628V4.48707H1.9303C1.75965 4.48707 1.59599 4.5621 1.47532 4.69565C1.35466 4.8292 1.28687 5.01034 1.28687 5.19921C1.28687 5.38808 1.35466 5.56921 1.47532 5.70276C1.59599 5.83631 1.75965 5.91134 1.9303 5.91134H2.62263L3.72032 21.0941C3.77209 21.8079 4.06489 22.474 4.54041 22.9596C5.01593 23.4453 5.63929 23.7149 6.28633 23.7147H14.3035C14.9505 23.7149 15.5739 23.4453 16.0494 22.9596C16.5249 22.474 16.8177 21.8079 16.8695 21.0941L17.9672 5.91134H18.6595C18.8302 5.91134 18.9938 5.83631 19.1145 5.70276C19.2352 5.56921 19.303 5.38808 19.303 5.19921C19.303 5.01034 19.2352 4.8292 19.1145 4.69565C18.9938 4.5621 18.8302 4.48707 18.6595 4.48707H14.1555ZM16.6752 5.91134L15.5865 20.9801C15.5606 21.3371 15.4142 21.6701 15.1765 21.9129C14.9387 22.1557 14.627 22.2905 14.3035 22.2905H6.28633C5.96281 22.2905 5.65113 22.1557 5.41337 21.9129C5.17561 21.6701 5.02921 21.3371 5.00333 20.9801L3.91464 5.91134H16.6752ZM7.04043 7.33561C7.21073 7.32472 7.37796 7.38911 7.50537 7.51464C7.63278 7.64017 7.70995 7.81655 7.7199 8.00502L8.36333 20.1113C8.37009 20.2976 8.31059 20.4794 8.1976 20.6176C8.08462 20.7559 7.92716 20.8396 7.75903 20.8508C7.5909 20.8619 7.42551 20.7997 7.29838 20.6775C7.17124 20.5552 7.09249 20.3826 7.07904 20.1968L6.43432 8.09048C6.4291 7.99692 6.44061 7.90314 6.4682 7.81452C6.4958 7.7259 6.53893 7.64418 6.59512 7.57405C6.65131 7.50392 6.71946 7.44676 6.79566 7.40584C6.87185 7.36492 6.9546 7.34106 7.03915 7.33561H7.04043ZM13.5494 7.33561C13.6339 7.34106 13.7167 7.36492 13.7929 7.40584C13.8691 7.44676 13.9372 7.50392 13.9934 7.57405C14.0496 7.64418 14.0927 7.7259 14.1203 7.81452C14.1479 7.90314 14.1594 7.99692 14.1542 8.09048L13.5108 20.1968C13.5073 20.2914 13.4869 20.3843 13.4506 20.4701C13.4143 20.5559 13.363 20.6328 13.2995 20.6963C13.236 20.7599 13.1617 20.8088 13.081 20.8401C13.0003 20.8715 12.9147 20.8847 12.8293 20.8791C12.7438 20.8734 12.6603 20.8489 12.5835 20.807C12.5068 20.7652 12.4383 20.7068 12.3822 20.6353C12.3261 20.5638 12.2834 20.4806 12.2566 20.3907C12.2299 20.3007 12.2197 20.2057 12.2265 20.1113L12.8699 8.00502C12.8799 7.81655 12.957 7.64017 13.0844 7.51464C13.2119 7.38911 13.3791 7.32472 13.5494 7.33561ZM10.2949 7.33561C10.4656 7.33561 10.6292 7.41064 10.7499 7.54419C10.8706 7.67774 10.9383 7.85888 10.9383 8.04775V20.1541C10.9383 20.3429 10.8706 20.5241 10.7499 20.6576C10.6292 20.7912 10.4656 20.8662 10.2949 20.8662C10.1243 20.8662 9.9606 20.7912 9.83994 20.6576C9.71927 20.5241 9.65148 20.3429 9.65148 20.1541V8.04775C9.65148 7.85888 9.71927 7.67774 9.83994 7.54419C9.9606 7.41064 10.1243 7.33561 10.2949 7.33561Z" fill="#259073"/>
</g>
<defs>
<clipPath id="clip0_76_73">
<rect width="20.5898" height="22.7883" fill="white" transform="translate(0 0.926392)"/>
</clipPath>
</defs>
</svg>
