<svg width="23" height="26" viewBox="0 0 23 26" fill="none" xmlns="http://www.w3.org/2000/svg">
<path d="M21.6837 3.93889C21.8143 4.08398 21.8877 4.2805 21.8877 4.48537C21.8877 4.69025 21.8143 4.88677 21.6837 5.03186L20.2247 6.6481L17.4272 3.55186L18.8861 1.93562C19.0173 1.7905 19.1951 1.70898 19.3806 1.70898C19.566 1.70898 19.7439 1.7905 19.8751 1.93562L21.6837 3.93734V3.93889ZM19.2358 7.74107L16.4383 4.64483L6.9085 15.1937C6.83152 15.2789 6.77356 15.3828 6.73925 15.4972L5.61325 19.2343C5.59282 19.3025 5.58993 19.3755 5.60487 19.4454C5.61982 19.5152 5.65202 19.5791 5.69788 19.6299C5.74374 19.6806 5.80145 19.7163 5.86456 19.7328C5.92767 19.7493 5.9937 19.7461 6.05526 19.7235L9.43187 18.4773C9.53505 18.4398 9.62892 18.3762 9.70603 18.2915L19.2358 7.74107Z" fill="#259073"/>
<path fill-rule="evenodd" clip-rule="evenodd" d="M1.3988 21.8352C1.3988 22.451 1.61986 23.0417 2.01334 23.4772C2.40682 23.9127 2.94049 24.1573 3.49695 24.1573H18.8834C19.4398 24.1573 19.9735 23.9127 20.367 23.4772C20.7605 23.0417 20.9815 22.451 20.9815 21.8352V12.5464C20.9815 12.3411 20.9078 12.1443 20.7767 11.9991C20.6455 11.8539 20.4676 11.7724 20.2821 11.7724C20.0966 11.7724 19.9188 11.8539 19.7876 11.9991C19.6564 12.1443 19.5827 12.3411 19.5827 12.5464V21.8352C19.5827 22.0405 19.5091 22.2373 19.3779 22.3825C19.2467 22.5277 19.0689 22.6092 18.8834 22.6092H3.49695C3.31146 22.6092 3.13357 22.5277 3.00241 22.3825C2.87125 22.2373 2.79757 22.0405 2.79757 21.8352V4.80582C2.79757 4.60053 2.87125 4.40365 3.00241 4.25848C3.13357 4.11332 3.31146 4.03176 3.49695 4.03176H12.5889C12.7744 4.03176 12.9523 3.95021 13.0835 3.80505C13.2146 3.65988 13.2883 3.463 13.2883 3.2577C13.2883 3.05241 13.2146 2.85552 13.0835 2.71036C12.9523 2.5652 12.7744 2.48364 12.5889 2.48364H3.49695C2.94049 2.48364 2.40682 2.7283 2.01334 3.16379C1.61986 3.59929 1.3988 4.18994 1.3988 4.80582V21.8352Z" fill="#259073"/>
</svg>
