<svg width="56" height="56" viewBox="0 0 56 56" fill="none" xmlns="http://www.w3.org/2000/svg">
<rect x="1.75" y="1.75" width="52.5" height="52.5" rx="13.25" stroke="#259073" stroke-width="2.5"/>
<path d="M37.9663 23.0652C37.9663 23.44 37.8196 23.7995 37.5585 24.0645C37.2975 24.3295 36.9434 24.4784 36.5741 24.4784C36.2049 24.4784 35.8508 24.3295 35.5897 24.0645C35.3287 23.7995 35.182 23.44 35.182 23.0652C35.182 22.6904 35.3287 22.331 35.5897 22.066C35.8508 21.8009 36.2049 21.652 36.5741 21.652C36.9434 21.652 37.2975 21.8009 37.5585 22.066C37.8196 22.331 37.9663 22.6904 37.9663 23.0652ZM33.7898 27.3048C34.1591 27.3048 34.5132 27.1559 34.7742 26.8909C35.0353 26.6258 35.182 26.2664 35.182 25.8916C35.182 25.5168 35.0353 25.1573 34.7742 24.8923C34.5132 24.6273 34.1591 24.4784 33.7898 24.4784C33.4206 24.4784 33.0665 24.6273 32.8054 24.8923C32.5444 25.1573 32.3977 25.5168 32.3977 25.8916C32.3977 26.2664 32.5444 26.6258 32.8054 26.8909C33.0665 27.1559 33.4206 27.3048 33.7898 27.3048ZM40.7506 25.8916C40.7506 26.2664 40.6039 26.6258 40.3428 26.8909C40.0818 27.1559 39.7277 27.3048 39.3584 27.3048C38.9892 27.3048 38.6351 27.1559 38.374 26.8909C38.113 26.6258 37.9663 26.2664 37.9663 25.8916C37.9663 25.5168 38.113 25.1573 38.374 24.8923C38.6351 24.6273 38.9892 24.4784 39.3584 24.4784C39.7277 24.4784 40.0818 24.6273 40.3428 24.8923C40.6039 25.1573 40.7506 25.5168 40.7506 25.8916ZM36.5741 30.1311C36.9434 30.1311 37.2975 29.9822 37.5585 29.7172C37.8196 29.4522 37.9663 29.0927 37.9663 28.7179C37.9663 28.3431 37.8196 27.9837 37.5585 27.7187C37.2975 27.4537 36.9434 27.3048 36.5741 27.3048C36.2049 27.3048 35.8508 27.4537 35.5897 27.7187C35.3287 27.9837 35.182 28.3431 35.182 28.7179C35.182 29.0927 35.3287 29.4522 35.5897 29.7172C35.8508 29.9822 36.2049 30.1311 36.5741 30.1311ZM18.4762 21.652H21.2605V24.4784H24.0448V27.3048H21.2605V30.1311H18.4762V27.3048H15.6919V24.4784H18.4762V21.652Z" fill="#259073"/>
<path d="M14.4415 15.2445C14.394 15.0651 14.3818 14.8779 14.4056 14.6936C14.4294 14.5093 14.4888 14.3317 14.5803 14.1707C14.6719 14.0098 14.7938 13.8688 14.9391 13.7557C15.0844 13.6427 15.2503 13.5599 15.4272 13.512L20.8064 12.0479C20.9914 11.9979 21.1845 11.9871 21.3737 12.0163C21.5629 12.0454 21.7442 12.1138 21.9062 12.2173C22.0682 12.3207 22.2074 12.4569 22.3152 12.6175C22.423 12.778 22.4971 12.9593 22.5327 13.1502C24.3564 12.9269 26.2915 12.8195 28.221 12.8195C30.2257 12.8195 32.2388 12.9354 34.1238 13.1756C34.1563 12.9819 34.2283 12.7971 34.3352 12.6332C34.4421 12.4693 34.5814 12.3298 34.7444 12.2237C34.9074 12.1176 35.0904 12.0471 35.2817 12.0169C35.4731 11.9866 35.6685 11.9972 35.8556 12.0479L41.2349 13.512C41.4401 13.5678 41.6301 13.6705 41.7902 13.8123C41.9503 13.9541 42.0763 14.1313 42.1585 14.3301C42.2408 14.529 42.2771 14.7444 42.2646 14.9597C42.2522 15.175 42.1914 15.3846 42.0868 15.5724C42.4785 15.8287 42.8247 16.1085 43.1254 16.4118C44.2614 17.565 45.2971 19.3795 46.1742 21.4201C47.0652 23.4919 47.842 25.9169 48.4156 28.39C48.9891 30.863 49.3622 33.4209 49.4291 35.7555C49.4959 38.0618 49.2648 40.2833 48.5158 42.0017C48.1742 42.7732 47.6013 43.4155 46.8788 43.8367C46.1563 44.258 45.3211 44.4368 44.4925 44.3476C42.7217 44.1582 41.388 43.234 40.2798 42.1628C39.5977 41.5071 38.8988 40.6762 38.2222 39.8791C37.8714 39.4608 37.5262 39.0538 37.1976 38.6836C35.1707 36.4112 32.7511 34.3677 28.221 34.3677C23.691 34.3677 21.2714 36.4112 19.2445 38.6836C18.9131 39.0538 18.5707 39.4608 18.2198 39.8791C17.5432 40.6762 16.8444 41.5043 16.1622 42.1628C15.0541 43.2368 13.7204 44.1582 11.9496 44.3476C11.121 44.4368 10.2858 44.258 9.56329 43.8367C8.84077 43.4155 8.26783 42.7732 7.92627 42.0017C7.17451 40.2833 6.9462 38.0589 7.01024 35.7555C7.07706 33.4209 7.45572 30.8659 8.0265 28.39C8.60007 25.9169 9.37967 23.4919 10.2679 21.4201C11.1449 19.3795 12.1807 17.565 13.3139 16.4118C13.6772 16.0486 14.0819 15.7308 14.5195 15.465L14.4415 15.2445ZM20.1104 16.409C17.6685 16.9319 16.0202 17.6611 15.2852 18.4101C14.5167 19.1901 13.6508 20.6231 12.8211 22.5507C11.9442 24.648 11.2474 26.8182 10.7384 29.0372C10.2052 31.2671 9.8891 33.5448 9.79454 35.8374C9.73328 37.9713 9.96716 39.7039 10.4711 40.857C10.5743 41.0816 10.7442 41.2678 10.9569 41.3895C11.1696 41.5111 11.4145 41.5621 11.6572 41.5354C12.5677 41.4393 13.3557 40.9729 14.2438 40.1165C14.8341 39.5456 15.3576 38.921 15.9562 38.2116C16.3265 37.7707 16.7247 37.2987 17.1813 36.7871C19.4811 34.2066 22.5912 31.5442 28.221 31.5442C33.8509 31.5442 36.961 34.2066 39.2608 36.7871C39.7174 37.2987 40.1156 37.7707 40.4859 38.2116C41.0817 38.921 41.608 39.5456 42.1982 40.1165C43.0836 40.9729 43.8716 41.4393 44.7848 41.5382C45.0279 41.5647 45.273 41.5133 45.4857 41.3911C45.6985 41.269 45.8682 41.0822 45.971 40.857C46.4721 39.7039 46.7088 37.9742 46.6475 35.8374C46.553 33.5448 46.2368 31.2671 45.7037 29.0372C45.1947 26.8182 44.4979 24.648 43.621 22.5507C42.7913 20.6231 41.9226 19.1873 41.1569 18.4101C40.4218 17.6611 38.7735 16.9319 36.3317 16.409C33.965 15.9031 31.1056 15.6459 28.221 15.6459C25.3365 15.6459 22.477 15.9031 20.1104 16.409Z" fill="#259073"/>
</svg>
