<svg width="41" height="40" viewBox="0 0 41 40" fill="none" xmlns="http://www.w3.org/2000/svg">
<path d="M5.0874 5C5.0874 3.67392 5.6234 2.40215 6.57749 1.46447C7.53157 0.526784 8.82559 0 10.1749 0L30.5247 0C31.874 0 33.168 0.526784 34.1221 1.46447C35.0762 2.40215 35.6122 3.67392 35.6122 5V38.75C35.6121 38.9761 35.5495 39.1979 35.4313 39.3919C35.313 39.5858 35.1435 39.7446 34.9406 39.8513C34.7378 39.9581 34.5093 40.0087 34.2795 39.9979C34.0497 39.9871 33.8272 39.9153 33.6357 39.79L20.3498 32.7525L7.06388 39.79C6.87235 39.9153 6.64984 39.9871 6.42004 39.9979C6.19024 40.0087 5.96177 39.9581 5.75895 39.8513C5.55613 39.7446 5.38656 39.5858 5.2683 39.3919C5.15004 39.1979 5.08752 38.9761 5.0874 38.75V5ZM10.1749 2.5C9.50023 2.5 8.85322 2.76339 8.37618 3.23223C7.89913 3.70107 7.63113 4.33696 7.63113 5V36.415L19.6452 30.21C19.8539 30.0735 20.0991 30.0006 20.3498 30.0006C20.6005 30.0006 20.8457 30.0735 21.0544 30.21L33.0685 36.415V5C33.0685 4.33696 32.8005 3.70107 32.3234 3.23223C31.8464 2.76339 31.1994 2.5 30.5247 2.5H10.1749Z" fill="#259073"/>
<path d="M20.3498 10C20.6871 10 21.0106 10.1317 21.2492 10.3661C21.4877 10.6005 21.6217 10.9185 21.6217 11.25V15H25.4373C25.7746 15 26.0981 15.1317 26.3366 15.3661C26.5751 15.6005 26.7091 15.9185 26.7091 16.25C26.7091 16.5815 26.5751 16.8995 26.3366 17.1339C26.0981 17.3683 25.7746 17.5 25.4373 17.5H21.6217V21.25C21.6217 21.5815 21.4877 21.8995 21.2492 22.1339C21.0106 22.3683 20.6871 22.5 20.3498 22.5C20.0125 22.5 19.689 22.3683 19.4505 22.1339C19.2119 21.8995 19.0779 21.5815 19.0779 21.25V17.5H15.2623C14.925 17.5 14.6015 17.3683 14.363 17.1339C14.1245 16.8995 13.9905 16.5815 13.9905 16.25C13.9905 15.9185 14.1245 15.6005 14.363 15.3661C14.6015 15.1317 14.925 15 15.2623 15H19.0779V11.25C19.0779 10.9185 19.2119 10.6005 19.4505 10.3661C19.689 10.1317 20.0125 10 20.3498 10Z" fill="#259073"/>
</svg>
