<svg width="71" height="68" viewBox="0 0 71 68" fill="none" xmlns="http://www.w3.org/2000/svg">
<path d="M35.4636 0C37.3038 0 39.0687 0.716428 40.3699 1.99168C41.6711 3.26692 42.4021 4.99653 42.4021 6.8V27.2H63.2178C65.058 27.2 66.8228 27.9164 68.1241 29.1917C69.4253 30.4669 70.1563 32.1965 70.1563 34C70.1563 35.8035 69.4253 37.5331 68.1241 38.8083C66.8228 40.0836 65.058 40.8 63.2178 40.8H42.4021V61.2C42.4021 63.0035 41.6711 64.7331 40.3699 66.0083C39.0687 67.2836 37.3038 68 35.4636 68C33.6234 68 31.8585 67.2836 30.5573 66.0083C29.2561 64.7331 28.525 63.0035 28.525 61.2V40.8H7.70942C5.8692 40.8 4.10436 40.0836 2.80313 38.8083C1.5019 37.5331 0.770874 35.8035 0.770874 34C0.770874 32.1965 1.5019 30.4669 2.80313 29.1917C4.10436 27.9164 5.8692 27.2 7.70942 27.2H28.525V6.8C28.525 4.99653 29.2561 3.26692 30.5573 1.99168C31.8585 0.716428 33.6234 0 35.4636 0Z" fill="#259073"/>
</svg>
